<svg xmlns="http://www.w3.org/2000/svg" viewBox="0 0 179.518 30.507">
  <defs>
    <style>
      .cls-1 {
        fill: #fff;
      }

      .cls-2, .cls-4, .cls-5, .cls-6, .cls-7 {
        fill: none;
        stroke: #000;
      }

      .cls-2 {
        stroke-width: 1.037px;
      }

      .cls-3 {
        fill: #e31d1a;
      }

      .cls-4 {
        stroke-width: 0.483px;
      }

      .cls-5 {
        stroke-width: 0.475px;
      }

      .cls-6 {
        stroke-width: 0.444px;
      }

      .cls-7 {
        stroke-width: 0.48px;
      }
    </style>
  </defs>
  <g id="Group_210" data-name="Group 210" transform="translate(-112.482 -129.478)">
    <path id="Path_599" data-name="Path 599" class="cls-1" d="M95.362,18.431A9.031,9.031,0,1,1,86.331,9.4a9.035,9.035,0,0,1,9.031,9.031" transform="translate(101.047 128.179)"/>
    <ellipse id="Ellipse_5" data-name="Ellipse 5" class="cls-1" cx="14.058" cy="14.058" rx="14.058" ry="14.058" transform="translate(113 130.082)"/>
    <ellipse id="Ellipse_6" data-name="Ellipse 6" class="cls-2" cx="14.058" cy="14.058" rx="14.058" ry="14.058" transform="translate(113 130.082)"/>
    <path id="Path_600" data-name="Path 600" class="cls-1" d="M63.915,14.643A14.058,14.058,0,1,1,49.858.5,14.071,14.071,0,0,1,63.915,14.643" transform="translate(107.19 129.496)"/>
    <path id="Path_601" data-name="Path 601" class="cls-2" d="M63.915,14.643A14.058,14.058,0,1,1,49.858.5,14.071,14.071,0,0,1,63.915,14.643Z" transform="translate(107.19 129.496)"/>
    <path id="Path_602" data-name="Path 602" class="cls-1" d="M99.715,14.643A14.058,14.058,0,1,1,85.572.5,14.071,14.071,0,0,1,99.715,14.643" transform="translate(101.89 129.496)"/>
    <path id="Path_603" data-name="Path 603" class="cls-2" d="M99.715,14.643A14.058,14.058,0,1,1,85.572.5,14.071,14.071,0,0,1,99.715,14.643Z" transform="translate(101.89 129.496)"/>
    <path id="Path_604" data-name="Path 604" class="cls-1" d="M135.415,14.657A14.058,14.058,0,1,1,121.358.6a14.071,14.071,0,0,1,14.058,14.058" transform="translate(96.606 129.482)"/>
    <ellipse id="Ellipse_7" data-name="Ellipse 7" class="cls-2" cx="14.058" cy="14.058" rx="14.058" ry="14.058" transform="translate(203.906 130.082)"/>
    <path id="Path_605" data-name="Path 605" class="cls-1" d="M170.115,14.657A14.058,14.058,0,1,1,156.058.6a14.071,14.071,0,0,1,14.058,14.058" transform="translate(91.469 129.482)"/>
    <path id="Path_606" data-name="Path 606" class="cls-2" d="M170.115,14.657A14.058,14.058,0,1,1,156.058.6,14.071,14.071,0,0,1,170.115,14.657Z" transform="translate(91.469 129.482)"/>
    <path id="Path_607" data-name="Path 607" class="cls-3" d="M204.515,14.658A14.058,14.058,0,1,1,190.458.6a14.071,14.071,0,0,1,14.058,14.058" transform="translate(86.377 129.482)"/>
    <path id="Path_608" data-name="Path 608" d="M17.4,14.7a2.2,2.2,0,0,0,2.471-2.13c0-1.534-1.96-1.789-3.067-1.789H15.273c0,1.193-.085,2.641-.085,3.834A20.008,20.008,0,0,0,17.4,14.7m-6.9,8.946C9.48,15.81,9.991,11.38,10.928,7.376a59.142,59.142,0,0,1,6.731-.085c4.43.085,6.816,2.471,6.986,5.623.085,3.323-2.13,5.538-6.731,5.623H15.188c0,1.7.085,3.408.085,5.027a44.584,44.584,0,0,1-4.771.085" transform="translate(111.018 128.499)"/>
    <path id="Path_609" data-name="Path 609" class="cls-4" d="M17.4,14.7a2.2,2.2,0,0,0,2.471-2.13c0-1.534-1.96-1.789-3.067-1.789H15.273c0,1.193-.085,2.641-.085,3.834A20.008,20.008,0,0,0,17.4,14.7Zm-6.9,8.946C9.48,15.81,9.991,11.38,10.928,7.376a59.142,59.142,0,0,1,6.731-.085c4.43.085,6.816,2.471,6.986,5.623.085,3.323-2.13,5.538-6.731,5.623H15.188c0,1.7.085,3.408.085,5.027A44.584,44.584,0,0,1,10.5,23.648Z" transform="translate(111.018 128.499)"/>
    <path id="Path_610" data-name="Path 610" d="M47.482,15.035c0,2.045.682,4.6,3.152,4.6,2.215,0,3.152-1.96,3.152-4.6,0-2.13-.937-4.515-3.237-4.43-2.3,0-3.067,2.471-3.067,4.43m11.587,0A8.435,8.435,0,1,1,50.635,6.6a8.539,8.539,0,0,1,8.435,8.435" transform="translate(106.242 128.593)"/>
    <path id="Path_611" data-name="Path 611" class="cls-5" d="M47.482,15.035c0,2.045.682,4.6,3.152,4.6,2.215,0,3.152-1.96,3.152-4.6,0-2.13-.937-4.515-3.237-4.43C48.249,10.6,47.482,13.075,47.482,15.035Zm11.587,0A8.435,8.435,0,1,1,50.635,6.6,8.539,8.539,0,0,1,59.069,15.035Z" transform="translate(106.242 128.593)"/>
    <path id="Path_612" data-name="Path 612" d="M90.852,17.231h0a28.163,28.163,0,0,0,1.108-9.457c2.13.085,2.215.085,3.749.085,1.022,4.515-.341,10.224-3.067,15.847-1.7.085-2.9,0-4.43.085-.341-3.238-1.022-6.475-1.619-9.8h-.085a97.824,97.824,0,0,0-1.619,9.8,31.273,31.273,0,0,1-4,0c-2.726-5.538-4.43-11.076-3.067-15.932,1.874.085,1.96,0,3.578,0a30.261,30.261,0,0,0,.937,9.457h.085c.511-3.408,1.534-6.134,2.386-9.627a28.786,28.786,0,0,1,3.834,0c.767,3.493,1.619,6.134,2.215,9.542" transform="translate(101.041 128.442)"/>
    <path id="Path_613" data-name="Path 613" class="cls-6" d="M90.852,17.231h0a28.163,28.163,0,0,0,1.108-9.457c2.13.085,2.215.085,3.749.085,1.022,4.515-.341,10.224-3.067,15.847-1.7.085-2.9,0-4.43.085-.341-3.238-1.022-6.475-1.619-9.8h-.085a97.824,97.824,0,0,0-1.619,9.8,31.273,31.273,0,0,1-4,0c-2.726-5.538-4.43-11.076-3.067-15.932,1.874.085,1.96,0,3.578,0a30.261,30.261,0,0,0,.937,9.457h.085c.511-3.408,1.534-6.134,2.386-9.627a28.786,28.786,0,0,1,3.834,0C89.4,11.182,90.255,13.823,90.852,17.231Z" transform="translate(101.041 128.442)"/>
    <path id="Path_614" data-name="Path 614" d="M117.344,23.219a34.413,34.413,0,0,1,0-15.591,40.02,40.02,0,0,1,11.5,0,24.691,24.691,0,0,1,1.022,3.578c-2.812-.085-5.282-.17-7.923-.085v2.386c2.215,0,4.515,0,6.731.085V17.34c-2.215.085-4.515.085-6.731.085v2.556c2.726,0,5.453,0,8.179-.256a12.7,12.7,0,0,1-.682,3.663,47.81,47.81,0,0,1-12.1-.17" transform="translate(95.252 128.503)"/>
    <path id="Path_615" data-name="Path 615" class="cls-4" d="M117.344,23.219a34.413,34.413,0,0,1,0-15.591,40.02,40.02,0,0,1,11.5,0,24.691,24.691,0,0,1,1.022,3.578c-2.812-.085-5.282-.17-7.923-.085v2.386c2.215,0,4.515,0,6.731.085V17.34c-2.215.085-4.515.085-6.731.085v2.556c2.726,0,5.453,0,8.179-.256a12.7,12.7,0,0,1-.682,3.663A47.81,47.81,0,0,1,117.344,23.219Z" transform="translate(95.252 128.503)"/>
    <path id="Path_616" data-name="Path 616" d="M155.382,14.4h2.13c1.7,0,2.556-.426,2.556-1.619s-.937-1.789-2.215-1.789h-2.471c.085,1.108,0,2.3,0,3.408m.085,3.323c0,1.96.085,3.919.17,5.879a18.72,18.72,0,0,1-4.515-.341,26.732,26.732,0,0,1,.426-15.932,31.4,31.4,0,0,1,6.3-.426c5.027.085,6.816,2.13,7.071,5.112a3.427,3.427,0,0,1-2.726,3.749c1.7.6,3.152,1.108,2.9,4.26-.17,2.045-.767,2.812-.085,2.726,0,.17-.085.341-.085.511-1.874.256-3.067.17-4.771.341a9.934,9.934,0,0,1-.085-2.641c.085-2.215-.341-3.237-2.811-3.237h-1.789" transform="translate(90.27 128.549)"/>
    <path id="Path_617" data-name="Path 617" class="cls-7" d="M155.382,14.4h2.13c1.7,0,2.556-.426,2.556-1.619s-.937-1.789-2.215-1.789h-2.471C155.468,12.1,155.382,13.29,155.382,14.4Zm.085,3.323c0,1.96.085,3.919.17,5.879a18.72,18.72,0,0,1-4.515-.341,26.732,26.732,0,0,1,.426-15.932,31.4,31.4,0,0,1,6.3-.426c5.027.085,6.816,2.13,7.071,5.112a3.427,3.427,0,0,1-2.726,3.749c1.7.6,3.152,1.108,2.9,4.26-.17,2.045-.767,2.812-.085,2.726,0,.17-.085.341-.085.511-1.874.256-3.067.17-4.771.341a9.934,9.934,0,0,1-.085-2.641c.085-2.215-.341-3.237-2.811-3.237Z" transform="translate(90.27 128.549)"/>
    <path id="Path_618" data-name="Path 618" class="cls-1" d="M180.779,16.662a13.935,13.935,0,0,0,.17,1.874,2.9,2.9,0,0,1,.852.085c.511,0,.852-.17.767-.937-.085-.937-.511-.937-1.193-1.022h-.6m.17-3.578a11.547,11.547,0,0,0-.17,1.7h.852c.426,0,.682-.256.767-.852.085-.767-.256-.852-.682-.767a2.359,2.359,0,0,0-.767-.085m-1.278,7.583a16.691,16.691,0,0,1,0-9.8c.937-.085,1.789-.085,2.726-.17,1.278-.085,2.13.511,1.874,2.556a3.62,3.62,0,0,1-.937,2.3,2.793,2.793,0,0,1,1.108,2.386c.17,2.386-.511,3.067-1.96,2.982l-2.812-.256" transform="translate(86.002 127.988)"/>
    <path id="Path_619" data-name="Path 619" class="cls-1" d="M189.393,13.767a28.019,28.019,0,0,0-.767,3.663h1.619c-.341-1.278-.6-2.471-.852-3.663M185.9,20.753A29.663,29.663,0,0,1,188.456,10.7h2.386c.682,3.408,1.789,6.816,2.556,10.224h-2.3c-.085-.426-.256-.937-.341-1.363h-2.471a6.886,6.886,0,0,0-.085,1.363,20.889,20.889,0,0,0-2.3-.17" transform="translate(84.971 127.987)"/>
    <path id="Path_620" data-name="Path 620" class="cls-1" d="M195.7,20.938a100.6,100.6,0,0,0,0-10.138h2.215a39.354,39.354,0,0,1,.256,7.753h3.152a21.79,21.79,0,0,1-.426,2.3c-1.789,0-3.493.085-5.2.085" transform="translate(83.52 127.972)"/>
    <path id="Path_621" data-name="Path 621" class="cls-1" d="M202.4,20.783a22.75,22.75,0,0,0,0-9.883,12.711,12.711,0,0,1,1.789.17,17.751,17.751,0,0,1,.341,7.327h2.3a16.914,16.914,0,0,1-.767,2.215c-1.278.085-2.3.085-3.663.17" transform="translate(82.529 127.957)"/>
    <path id="Path_622" data-name="Path 622" d="M205.9,32.945a2.045,2.045,0,1,1,2.045,2.045A2.133,2.133,0,0,1,205.9,32.945Zm2.045,1.7a1.589,1.589,0,0,0,1.619-1.7,1.638,1.638,0,0,0-1.619-1.7,1.589,1.589,0,0,0-1.619,1.7A1.638,1.638,0,0,0,207.945,34.649Zm-.426-.6h-.341v-2.3h.852c.511,0,.852.17.852.682a.658.658,0,0,1-.6.682l.682,1.022h-.426l-.6-1.022h-.426Zm.426-1.278c.341,0,.6,0,.6-.341,0-.256-.256-.341-.511-.341h-.511v.682Z" transform="translate(82.01 124.996)"/>
  </g>
</svg>
